<?xml version="1.0" encoding="UTF-8"?>
<svg xmlns="http://www.w3.org/2000/svg" version="1.1" viewBox="0 0 16 16">
  <defs>
    <style>
      .cls-1 {
        fill: #fff;
      }
    </style>
  </defs>
  <!-- Generator: Adobe Illustrator 28.7.0, SVG Export Plug-In . SVG Version: 1.2.0 Build 136)  -->
  <g>
    <g id="Layer_1">
      <path className="cls-1" d="M.3.3C.7,0,1.3,0,1.7.3l6.3,6.3L14.3.3c.4-.4,1-.4,1.4,0,.4.4.4,1,0,1.4,0,0,0,0,0,0l-6.3,6.3,6.3,6.3c.4.4.4,1,0,1.4-.4.4-1,.4-1.4,0l-6.3-6.3L1.7,15.7c-.4.4-1,.4-1.4,0-.4-.4-.4-1,0-1.4l6.3-6.3L.3,1.7C0,1.3,0,.7.3.3Z"/>
    </g>
  </g>
</svg>